HIERARCHY
ROOT pelvis
{
  OFFSET 0 100 0
  CHANNELS 6 Xposition Yposition Zposition Zrotation Xrotation Yrotation
  JOINT pelvis_right_femur
  {
    OFFSET -10.78128 -3.44521 -0.5502486
    CHANNELS 3 Zrotation Xrotation Yrotation
    JOINT right_femur_tibia
    {
      OFFSET -0.8047443 -44.0398 -0.1307829
      CHANNELS 3 Zrotation Xrotation Yrotation
      JOINT right_tibia_foot
      {
        OFFSET 3.006224 -47.83518 -5
        CHANNELS 3 Zrotation Xrotation Yrotation
        End Site
        {
          OFFSET 0 -5 15
        }
      }
    }
  }
  JOINT pelvis_left_femur
  {
    OFFSET 10.78128 -3.44521 -0.5502486
    CHANNELS 3 Zrotation Xrotation Yrotation
    JOINT left_femur_tibia
    {
      OFFSET 0.8047443 -44.0398 -0.1307829
      CHANNELS 3 Zrotation Xrotation Yrotation
      JOINT left_tibia_foot
      {
        OFFSET -4.370144 -48.10324 -4.275266
        CHANNELS 3 Zrotation Xrotation Yrotation
        End Site
        {
          OFFSET 0 -5 15
        }
      }
    }
  }
  JOINT pelvis_spine1
  {
    OFFSET 0 6.468898 -3.129235
    CHANNELS 3 Zrotation Xrotation Yrotation
    JOINT spine1
    {
      OFFSET 0 23.15396 4.99043
      CHANNELS 3 Zrotation Xrotation Yrotation
      JOINT spine2
      {
        OFFSET 0 20.79997 -5.064912
        CHANNELS 3 Zrotation Xrotation Yrotation
        JOINT neck
        {
          OFFSET 0 14.38658 9.616178
          CHANNELS 3 Zrotation Xrotation Yrotation
          End Site
          {
            OFFSET 0 20 0
          }
        }
      }
      JOINT right_manubrium
      {
        OFFSET -5.722621 16.35077 3.967754
        CHANNELS 3 Zrotation Xrotation Yrotation
        JOINT right_clavicle
        {
          OFFSET -13.16364 1.694482 -4.693211
          CHANNELS 3 Zrotation Xrotation Yrotation
          JOINT right_humerus
          {
            OFFSET -28.5034 -0.3100689 -2.792744
            CHANNELS 3 Zrotation Xrotation Yrotation
            JOINT right_radius
            {
              OFFSET -25.15693 0.02248979 -1.271978
              CHANNELS 3 Zrotation Xrotation Yrotation
              End Site
              {
                OFFSET -15 0 0
              }
            }
          }
        }
      }
      JOINT left_manubrium
      {
        OFFSET 5.722621 16.35077 3.967754
        CHANNELS 3 Zrotation Xrotation Yrotation
        JOINT left_clavicle
        {
          OFFSET 13.16364 1.694482 -4.693211
          CHANNELS 3 Zrotation Xrotation Yrotation
          JOINT left_humerus
          {
            OFFSET 29.39168 -1.063119 -2.237045
            CHANNELS 3 Zrotation Xrotation Yrotation
            JOINT left_radius
            {
              OFFSET 24.59957 -0.9528479 0.9047498
              CHANNELS 3 Zrotation Xrotation Yrotation
              End Site
              {
                OFFSET 15 -0 -0
              }
            }
          }
        }
      }
    }
  }
}
MOTION
Frames: 9
Frame Time: 0.0416666666667
37.3002 99.99784 275.2074 0.06022117 -1.718276 0.2129359 0.9637735 10.27555 8.671277 -0 35.98275 -0 11.96112 -9.5674 -1.584786 1.402474 -31.13237 -3.313954 -0 26.93838 -0 -6.003055 -8.51536 17.87081 -0.1677038 -6.723333 8.971863 -2.45901 11.0447 -1.821501 4.527636 21.01374 4.926629 -0.8679548 -12.01917 11.11851 1.715204 -21.10441 9.792723 79.98512 16.52774 -8.144984 -0 0 27.94249 -27.65095 13.62741 15.39619 2.632222 -12.59886 -2.305196 -91.25082 18.94854 28.58407 0 0 -8.280805 -3.519083 7.828105 17.8258
38.8891 100.3869 282.606 0.065794 -1.578383 0.8872244 0.618447 8.287758 7.506226 -0 44.05751 -0 13.42641 -6.248876 -2.924759 -0.008836062 -27.99132 -4.420137 -0 28.28778 -0 -5.874024 -9.47009 16.98515 -0.199876 -7.874771 8.750152 -2.364154 10.97018 -1.811694 4.531327 21.62585 4.928634 -1.095045 -11.79532 11.34263 2.157716 -19.88677 9.592425 80.62913 16.39312 -9.262821 -0 0 26.24272 -27.22769 13.63478 14.5549 2.648186 -12.68491 -2.252481 -90.40543 19.28698 27.44543 0 0 -8.744759 -3.456345 7.984231 17.78725
40.39644 101.1445 289.3866 0.06924905 -1.389639 1.80569 0.4877975 4.120584 6.263029 -0 53.04613 -0 14.19799 -4.245661 -5.069031 -1.103498 -24.39475 -5.357325 -0 28.24259 -0 -5.409116 -11.38028 16.15143 -0.2178614 -8.642592 8.09288 -2.338128 10.83328 -1.937873 4.444752 22.25225 5.037449 -1.38146 -11.62357 11.64049 2.855409 -18.85342 9.683353 81.4369 16.50335 -10.36024 -0 0 24.01505 -26.50805 13.75166 13.45823 2.48879 -13.22819 -2.442925 -89.05815 19.7533 25.36051 0 0 -9.67135 -3.280261 8.199333 17.55873
41.73525 102.4471 295.5675 0.06856978 -1.23984 2.533772 0.1811813 -2.431763 5.476161 -0 59.75732 -0 14.11824 -4.775861 -6.789268 -2.038659 -20.0117 -6.216562 -0 27.28687 -0 -5.027502 -13.13087 15.47327 -0.2197028 -9.098937 7.180873 -2.243652 10.69386 -2.124741 4.206726 22.92959 5.31605 -1.744792 -11.46621 12.03173 3.682127 -17.81393 9.886617 82.44044 16.78931 -11.59179 -0 0 21.51852 -25.56731 13.93388 12.22686 2.29833 -14.17989 -2.715706 -87.28468 20.22897 22.42635 0 0 -11.05651 -2.928477 8.478467 17.08745
43.00687 103.9768 301.3044 0.06557397 -1.067947 3.370073 0.8069135 -10.03498 5.127936 -0 62.06894 -0 13.01092 -5.819958 -7.41652 -2.716145 -15.0503 -7.079749 -0 25.81412 -0 -4.833938 -14.35515 14.70479 -0.2687371 -9.22488 6.001268 -1.999587 10.44295 -2.634478 3.969248 23.74355 5.69377 -2.079835 -11.18517 12.53987 4.201374 -17.03365 10.05381 83.46117 17.12464 -12.61943 -0 0 19.66235 -24.63791 14.08172 11.22904 2.267146 -15.25668 -3.166987 -85.482 20.59583 18.88124 0 0 -12.83363 -2.486014 8.804981 16.41633
44.18173 105.2481 306.7727 0.05765542 -0.8122242 4.623352 1.747833 -16.94551 4.886684 -0 60.11698 -0 11.37584 -6.386711 -7.969672 -3.110937 -10.51599 -7.930759 -0 23.39846 -0 -4.775748 -15.36937 13.83428 -0.5248552 -9.012174 4.602406 -1.645918 10.28114 -3.617213 3.8706 24.58965 6.013894 -2.300378 -10.78405 13.07071 4.22134 -16.22768 9.904036 84.55187 17.36638 -13.68782 -0 0 18.40954 -23.81253 14.12817 10.41277 2.511449 -16.27268 -3.630858 -83.78815 20.81225 15.06645 0 0 -14.94493 -1.94216 9.181428 15.46019
45.26114 105.7263 312.1898 0.03935294 -0.4652515 6.338986 2.178656 -22.72658 4.773752 -0 54.18498 -0 9.614772 -6.394843 -8.964441 -3.322493 -6.127103 -8.584963 -0 20.86031 -0 -4.727971 -16.62079 12.91584 -0.8757465 -9.055977 3.283891 -1.169654 9.547303 -4.763461 3.910874 24.74257 6.235659 -2.517596 -10.74842 13.58735 3.895218 -15.18748 9.781456 85.34116 17.5 -14.90311 -0 0 17.31169 -23.09435 14.067 9.610759 2.97659 -17.12663 -4.26215 -82.26686 20.96531 11.18551 0 0 -17.21776 -1.385703 9.6123 14.25112
46.29098 105.5074 317.2778 0.01273529 -0.1300829 8.010739 2.180783 -26.89025 4.939202 -0 45.68161 -0 7.793532 -6.035377 -10.18984 -3.373438 -2.247648 -9.129 -0 18.94537 -0 -4.664705 -18.14519 12.0476 -1.284093 -8.658738 2.124498 -0.5619156 9.025002 -5.659182 4.100791 24.82173 6.320216 -2.641322 -10.67433 14.04746 3.517095 -14.03225 9.857707 85.98035 17.50531 -16.11044 -0 0 16.28591 -22.34856 13.87647 8.652669 3.551782 -18.30073 -5.095743 -80.7325 21.15872 6.976076 0 0 -19.65905 -0.8203615 10.14527 12.86387
47.43962 104.6583 323.4907 -0.01783562 0.1627032 9.485252 1.954134 -31.30465 5.432798 -0 36.46926 -0 5.944884 -5.874816 -11.82923 -3.299271 1.696372 -9.646175 -0 18.16154 -0 -4.641591 -19.85484 11.22851 -1.692589 -8.859035 1.254389 -0.03559601 8.631679 -6.227483 4.55375 24.69678 6.159626 -2.59142 -10.83403 14.36852 2.898029 -12.37033 9.99503 86.60715 17.40065 -17.58097 -0 0 15.13217 -21.53839 13.60678 7.596943 4.258258 -19.18454 -5.646294 -79.57161 21.31515 3.344914 0 0 -22.02572 -0.1712426 10.79504 11.34654
